<svg xmlns="http://www.w3.org/2000/svg" xmlns:xlink="http://www.w3.org/1999/xlink" width="800" zoomAndPan="magnify" viewBox="0 0 600 1499.999933" height="2000" preserveAspectRatio="xMidYMid meet" version="1.0"><defs><clipPath id="c6e9aa3dee"><path d="M 106 384.394531 L 299.703125 384.394531 L 299.703125 622 L 106 622 Z M 106 384.394531 " clip-rule="nonzero"/></clipPath><clipPath id="d9c4d1abdd"><path d="M 488 414 L 510 414 L 510 506 L 488 506 Z M 488 414 " clip-rule="nonzero"/></clipPath></defs><g clip-path="url(#c6e9aa3dee)"><path fill="#232526" d="M 267.765625 510.382812 C 268.105469 546.269531 299.179688 558.210938 299.523438 558.359375 C 299.261719 559.207031 294.558594 575.386719 283.148438 592.09375 C 273.289062 606.539062 263.054688 620.9375 246.925781 621.230469 C 231.085938 621.523438 225.992188 611.816406 207.875 611.816406 C 189.769531 611.816406 184.109375 620.9375 169.117188 621.523438 C 153.550781 622.113281 141.699219 605.902344 131.757812 591.511719 C 111.4375 562.066406 95.910156 508.316406 116.761719 472.027344 C 127.117188 454.007812 145.628906 442.597656 165.71875 442.304688 C 181.003906 442.011719 195.429688 452.609375 204.769531 452.609375 C 214.109375 452.609375 231.636719 439.863281 250.066406 441.734375 C 257.78125 442.058594 279.429688 444.859375 293.339844 465.261719 C 292.21875 465.953125 267.503906 480.375 267.765625 510.382812 M 237.996094 422.257812 C 246.257812 412.234375 251.820312 398.277344 250.300781 384.394531 C 238.394531 384.875 223.988281 392.347656 215.449219 402.367188 C 207.792969 411.238281 201.089844 425.441406 202.894531 439.050781 C 216.171875 440.078125 229.730469 432.289062 237.996094 422.257812 " fill-opacity="1" fill-rule="nonzero"/></g><path fill="#232526" d="M 356.261719 329.054688 C 356.835938 329.839844 357.554688 330.457031 358.421875 330.894531 C 359.289062 331.335938 360.207031 331.558594 361.179688 331.554688 C 362.492188 331.554688 363.6875 331.175781 364.761719 330.414062 C 365.082031 330.179688 365.375 329.914062 365.644531 329.617188 C 365.914062 329.324219 366.152344 329.007812 366.359375 328.667969 C 366.566406 328.324219 366.738281 327.96875 366.875 327.59375 C 367.011719 327.21875 367.113281 326.835938 367.175781 326.441406 C 367.238281 326.046875 367.261719 325.652344 367.246094 325.253906 C 367.230469 324.855469 367.179688 324.464844 367.085938 324.074219 C 366.996094 323.6875 366.867188 323.3125 366.703125 322.949219 C 366.539062 322.585938 366.339844 322.242188 366.109375 321.917969 L 358.59375 311.574219 C 358.359375 311.253906 358.09375 310.957031 357.800781 310.683594 C 357.511719 310.414062 357.191406 310.171875 356.851562 309.964844 C 356.511719 309.757812 356.15625 309.582031 355.78125 309.445312 C 355.40625 309.304688 355.023438 309.207031 354.628906 309.140625 C 354.234375 309.078125 353.839844 309.054688 353.4375 309.070312 C 353.039062 309.085938 352.648438 309.140625 352.257812 309.234375 C 351.871094 309.328125 351.496094 309.457031 351.132812 309.621094 C 350.769531 309.789062 350.425781 309.988281 350.105469 310.222656 C 349.78125 310.457031 349.484375 310.722656 349.210938 311.015625 C 348.941406 311.308594 348.699219 311.625 348.492188 311.964844 C 348.28125 312.304688 348.109375 312.660156 347.972656 313.035156 C 347.832031 313.410156 347.730469 313.792969 347.667969 314.1875 C 347.605469 314.582031 347.582031 314.980469 347.597656 315.378906 C 347.613281 315.777344 347.667969 316.171875 347.757812 316.558594 C 347.851562 316.945312 347.980469 317.320312 348.148438 317.683594 C 348.316406 318.046875 348.515625 318.390625 348.75 318.714844 Z M 356.261719 329.054688 " fill-opacity="1" fill-rule="nonzero"/><path fill="#232526" d="M 449.863281 331.554688 C 450.828125 331.546875 451.734375 331.324219 452.589844 330.882812 C 453.445312 330.441406 454.15625 329.832031 454.71875 329.054688 L 462.234375 318.714844 C 462.46875 318.390625 462.667969 318.046875 462.835938 317.683594 C 463.003906 317.320312 463.132812 316.945312 463.226562 316.558594 C 463.316406 316.171875 463.371094 315.777344 463.386719 315.378906 C 463.402344 314.980469 463.378906 314.582031 463.316406 314.1875 C 463.253906 313.792969 463.152344 313.410156 463.015625 313.035156 C 462.875 312.660156 462.703125 312.304688 462.492188 311.964844 C 462.285156 311.621094 462.042969 311.304688 461.773438 311.011719 C 461.5 310.71875 461.203125 310.457031 460.878906 310.222656 C 460.558594 309.988281 460.214844 309.789062 459.851562 309.621094 C 459.488281 309.453125 459.113281 309.324219 458.726562 309.230469 C 458.335938 309.140625 457.945312 309.085938 457.542969 309.070312 C 457.144531 309.054688 456.75 309.078125 456.355469 309.140625 C 455.960938 309.203125 455.578125 309.304688 455.203125 309.441406 C 454.828125 309.582031 454.46875 309.753906 454.128906 309.964844 C 453.789062 310.171875 453.472656 310.414062 453.179688 310.683594 C 452.886719 310.957031 452.625 311.253906 452.390625 311.574219 L 444.898438 321.917969 C 444.570312 322.367188 444.3125 322.855469 444.117188 323.378906 C 443.925781 323.902344 443.804688 324.441406 443.757812 324.996094 C 443.714844 325.550781 443.746094 326.101562 443.851562 326.648438 C 443.960938 327.195312 444.136719 327.71875 444.390625 328.21875 C 444.640625 328.714844 444.953125 329.171875 445.328125 329.582031 C 445.707031 329.992188 446.128906 330.347656 446.601562 330.640625 C 447.078125 330.933594 447.582031 331.160156 448.117188 331.316406 C 448.652344 331.46875 449.199219 331.550781 449.753906 331.554688 Z M 449.863281 331.554688 " fill-opacity="1" fill-rule="nonzero"/><path fill="#232526" d="M 300.558594 425.261719 L 300.558594 494.609375 C 300.558594 495.339844 300.628906 496.066406 300.773438 496.785156 C 300.914062 497.5 301.125 498.199219 301.40625 498.875 C 301.6875 499.550781 302.03125 500.191406 302.4375 500.800781 C 302.84375 501.410156 303.304688 501.972656 303.820312 502.488281 C 304.339844 503.007812 304.902344 503.46875 305.511719 503.875 C 306.121094 504.28125 306.761719 504.625 307.4375 504.90625 C 308.113281 505.183594 308.808594 505.394531 309.527344 505.539062 C 310.246094 505.679688 310.96875 505.753906 311.703125 505.753906 C 312.433594 505.753906 313.15625 505.679688 313.875 505.539062 C 314.59375 505.394531 315.289062 505.183594 315.964844 504.90625 C 316.640625 504.625 317.285156 504.28125 317.894531 503.875 C 318.5 503.46875 319.0625 503.007812 319.582031 502.488281 C 320.097656 501.972656 320.5625 501.410156 320.96875 500.800781 C 321.375 500.191406 321.71875 499.550781 321.996094 498.875 C 322.277344 498.199219 322.488281 497.5 322.632812 496.785156 C 322.773438 496.066406 322.84375 495.339844 322.84375 494.609375 L 322.84375 414.144531 L 311.703125 414.144531 C 310.972656 414.144531 310.246094 414.214844 309.53125 414.359375 C 308.8125 414.5 308.117188 414.710938 307.441406 414.992188 C 306.769531 415.269531 306.125 415.613281 305.519531 416.019531 C 304.910156 416.421875 304.347656 416.882812 303.832031 417.398438 C 303.3125 417.917969 302.851562 418.476562 302.445312 419.085938 C 302.039062 419.691406 301.695312 420.332031 301.414062 421.007812 C 301.132812 421.679688 300.921875 422.375 300.777344 423.09375 C 300.632812 423.808594 300.558594 424.53125 300.558594 425.261719 Z M 300.558594 425.261719 " fill-opacity="1" fill-rule="nonzero"/><path fill="#232526" d="M 360.183594 569.453125 C 360.183594 570.347656 360.269531 571.230469 360.441406 572.101562 C 360.617188 572.976562 360.875 573.828125 361.214844 574.652344 C 361.554688 575.472656 361.972656 576.257812 362.46875 577 C 362.960938 577.738281 363.523438 578.425781 364.15625 579.054688 C 364.785156 579.6875 365.472656 580.25 366.210938 580.746094 C 366.953125 581.242188 367.734375 581.660156 368.558594 582 C 369.382812 582.34375 370.230469 582.597656 371.105469 582.773438 C 371.980469 582.949219 372.863281 583.035156 373.753906 583.035156 C 374.644531 583.035156 375.53125 582.949219 376.402344 582.773438 C 377.277344 582.597656 378.125 582.34375 378.949219 582 C 379.773438 581.660156 380.554688 581.242188 381.296875 580.746094 C 382.039062 580.25 382.722656 579.6875 383.355469 579.054688 C 383.984375 578.425781 384.546875 577.738281 385.042969 577 C 385.535156 576.257812 385.953125 575.472656 386.296875 574.652344 C 386.636719 573.828125 386.894531 572.976562 387.066406 572.101562 C 387.242188 571.230469 387.328125 570.347656 387.324219 569.453125 L 387.324219 544.898438 L 360.183594 544.898438 Z M 360.183594 569.453125 " fill-opacity="1" fill-rule="nonzero"/><path fill="#232526" d="M 460.460938 402.007812 L 475.804688 402.007812 C 475.617188 399.910156 475.332031 397.824219 474.949219 395.753906 C 474.566406 393.683594 474.089844 391.632812 473.519531 389.609375 C 472.945312 387.582031 472.28125 385.585938 471.527344 383.621094 C 470.769531 381.65625 469.925781 379.726562 468.992188 377.839844 C 468.054688 375.953125 467.035156 374.113281 465.929688 372.320312 C 464.828125 370.527344 463.640625 368.792969 462.375 367.109375 C 461.109375 365.425781 459.769531 363.804688 458.355469 362.246094 C 456.9375 360.6875 455.453125 359.195312 453.898438 357.773438 C 452.347656 356.351562 450.730469 355.003906 449.050781 353.734375 C 447.375 352.460938 445.640625 351.269531 443.851562 350.15625 C 442.0625 349.046875 440.226562 348.019531 438.34375 347.078125 C 436.460938 346.136719 434.539062 345.285156 432.574219 344.519531 C 430.613281 343.753906 428.621094 343.085938 426.59375 342.503906 C 424.570312 341.925781 422.523438 341.441406 420.453125 341.050781 C 418.382812 340.660156 416.300781 340.367188 414.203125 340.171875 C 412.109375 339.972656 410.007812 339.875 407.902344 339.871094 L 403.179688 339.871094 C 401.070312 339.871094 398.96875 339.96875 396.871094 340.164062 C 394.773438 340.363281 392.6875 340.652344 390.617188 341.042969 C 388.546875 341.429688 386.496094 341.914062 384.472656 342.492188 C 382.445312 343.070312 380.449219 343.742188 378.484375 344.503906 C 376.523438 345.269531 374.597656 346.121094 372.710938 347.0625 C 370.828125 348.003906 368.988281 349.03125 367.199219 350.140625 C 365.410156 351.253906 363.671875 352.445312 361.992188 353.714844 C 360.3125 354.988281 358.695312 356.335938 357.140625 357.757812 C 355.585938 359.179688 354.097656 360.667969 352.679688 362.226562 C 351.265625 363.785156 349.921875 365.40625 348.65625 367.089844 C 347.386719 368.773438 346.199219 370.511719 345.09375 372.308594 C 343.988281 374.101562 342.964844 375.941406 342.03125 377.828125 C 341.09375 379.714844 340.246094 381.644531 339.492188 383.609375 C 338.734375 385.574219 338.066406 387.574219 337.496094 389.601562 C 336.921875 391.628906 336.445312 393.679688 336.0625 395.75 C 335.679688 397.824219 335.390625 399.90625 335.203125 402.007812 Z M 435.503906 371.941406 C 435.789062 371.675781 436.09375 371.4375 436.421875 371.226562 C 436.75 371.015625 437.097656 370.839844 437.457031 370.691406 C 437.816406 370.546875 438.1875 370.4375 438.570312 370.359375 C 438.953125 370.28125 439.339844 370.238281 439.726562 370.234375 C 440.117188 370.226562 440.503906 370.257812 440.886719 370.320312 C 441.269531 370.386719 441.644531 370.488281 442.011719 370.621094 C 442.375 370.757812 442.726562 370.921875 443.0625 371.121094 C 443.394531 371.320312 443.710938 371.550781 444 371.804688 C 444.566406 372.398438 445.003906 373.070312 445.316406 373.824219 C 445.632812 374.574219 445.800781 375.359375 445.824219 376.175781 C 445.828125 376.96875 445.683594 377.734375 445.390625 378.472656 C 445.097656 379.210938 444.675781 379.863281 444.125 380.4375 C 443.546875 381.019531 442.878906 381.46875 442.121094 381.785156 C 441.363281 382.097656 440.574219 382.25 439.753906 382.246094 C 438.925781 382.269531 438.132812 382.121094 437.371094 381.808594 C 436.605469 381.492188 435.941406 381.035156 435.371094 380.4375 C 434.828125 379.859375 434.410156 379.203125 434.117188 378.46875 C 433.828125 377.730469 433.679688 376.96875 433.683594 376.175781 C 433.695312 375.378906 433.859375 374.613281 434.175781 373.878906 C 434.492188 373.144531 434.933594 372.5 435.503906 371.941406 Z M 367.054688 371.941406 C 367.476562 371.503906 367.949219 371.136719 368.480469 370.84375 C 369.011719 370.550781 369.570312 370.339844 370.164062 370.214844 C 370.757812 370.089844 371.355469 370.054688 371.957031 370.105469 C 372.5625 370.160156 373.144531 370.300781 373.707031 370.527344 C 374.269531 370.757812 374.785156 371.0625 375.253906 371.445312 C 375.722656 371.824219 376.128906 372.269531 376.464844 372.773438 C 376.804688 373.273438 377.058594 373.816406 377.234375 374.398438 C 377.410156 374.976562 377.496094 375.570312 377.492188 376.175781 C 377.5 377 377.34375 377.792969 377.023438 378.554688 C 376.707031 379.316406 376.25 379.984375 375.660156 380.558594 C 375.097656 381.113281 374.449219 381.535156 373.710938 381.828125 C 372.976562 382.121094 372.214844 382.261719 371.425781 382.246094 C 370.601562 382.269531 369.808594 382.121094 369.046875 381.808594 C 368.285156 381.492188 367.621094 381.035156 367.054688 380.4375 C 366.496094 379.871094 366.070312 379.21875 365.773438 378.476562 C 365.480469 377.738281 365.339844 376.972656 365.355469 376.175781 C 365.359375 375.386719 365.511719 374.628906 365.804688 373.898438 C 366.097656 373.164062 366.515625 372.511719 367.054688 371.941406 Z M 367.054688 371.941406 " fill-opacity="1" fill-rule="nonzero"/><g clip-path="url(#d9c4d1abdd)"><path fill="#232526" d="M 499.511719 414.144531 L 488.234375 414.144531 L 488.234375 424.511719 C 488.292969 424.757812 488.335938 425.011719 488.367188 425.261719 L 488.367188 494.609375 C 488.367188 495.339844 488.441406 496.066406 488.582031 496.785156 C 488.726562 497.5 488.9375 498.199219 489.21875 498.875 C 489.496094 499.550781 489.839844 500.191406 490.246094 500.800781 C 490.652344 501.410156 491.113281 501.972656 491.632812 502.488281 C 492.148438 503.007812 492.710938 503.46875 493.320312 503.875 C 493.929688 504.28125 494.570312 504.625 495.246094 504.90625 C 495.921875 505.183594 496.621094 505.394531 497.339844 505.539062 C 498.054688 505.679688 498.78125 505.753906 499.511719 505.753906 C 500.242188 505.753906 500.96875 505.679688 501.6875 505.539062 C 502.402344 505.394531 503.101562 505.183594 503.777344 504.90625 C 504.453125 504.625 505.09375 504.28125 505.703125 503.875 C 506.3125 503.46875 506.875 503.007812 507.390625 502.488281 C 507.910156 501.972656 508.371094 501.410156 508.777344 500.800781 C 509.183594 500.191406 509.527344 499.550781 509.808594 498.875 C 510.085938 498.199219 510.296875 497.5 510.441406 496.785156 C 510.585938 496.066406 510.65625 495.339844 510.65625 494.609375 L 510.65625 425.261719 C 510.652344 424.53125 510.582031 423.808594 510.4375 423.09375 C 510.292969 422.375 510.082031 421.679688 509.800781 421.007812 C 509.519531 420.332031 509.175781 419.691406 508.769531 419.085938 C 508.363281 418.476562 507.898438 417.917969 507.382812 417.398438 C 506.867188 416.882812 506.304688 416.421875 505.695312 416.019531 C 505.085938 415.613281 504.445312 415.269531 503.769531 414.992188 C 503.097656 414.710938 502.398438 414.5 501.683594 414.359375 C 500.964844 414.214844 500.242188 414.144531 499.511719 414.144531 Z M 499.511719 414.144531 " fill-opacity="1" fill-rule="nonzero"/></g><path fill="#232526" d="M 423.886719 569.453125 C 423.886719 570.34375 423.976562 571.226562 424.148438 572.101562 C 424.324219 572.976562 424.578125 573.824219 424.921875 574.648438 C 425.261719 575.472656 425.679688 576.253906 426.175781 576.992188 C 426.671875 577.734375 427.234375 578.421875 427.863281 579.050781 C 428.492188 579.679688 429.179688 580.242188 429.917969 580.738281 C 430.660156 581.234375 431.441406 581.652344 432.265625 581.992188 C 433.089844 582.332031 433.9375 582.589844 434.8125 582.765625 C 435.683594 582.9375 436.566406 583.023438 437.457031 583.023438 C 438.351562 583.023438 439.234375 582.9375 440.105469 582.765625 C 440.980469 582.589844 441.828125 582.332031 442.652344 581.992188 C 443.476562 581.652344 444.257812 581.234375 445 580.738281 C 445.738281 580.242188 446.425781 579.679688 447.054688 579.050781 C 447.683594 578.421875 448.246094 577.734375 448.742188 576.992188 C 449.238281 576.253906 449.65625 575.472656 449.996094 574.648438 C 450.339844 573.824219 450.59375 572.976562 450.769531 572.101562 C 450.941406 571.226562 451.03125 570.34375 451.03125 569.453125 L 451.03125 544.898438 L 423.886719 544.898438 Z M 423.886719 569.453125 " fill-opacity="1" fill-rule="nonzero"/><path fill="#232526" d="M 350.738281 414.144531 L 334.984375 414.144531 L 334.984375 532.761719 L 476.097656 532.761719 L 476.097656 414.144531 Z M 350.738281 414.144531 " fill-opacity="1" fill-rule="nonzero"/></svg>