<svg xmlns="http://www.w3.org/2000/svg" xmlns:xlink="http://www.w3.org/1999/xlink" width="800" zoomAndPan="magnify" viewBox="0 0 600 1499.999933" height="2000" preserveAspectRatio="xMidYMid meet" version="1.0"><defs><clipPath id="5c0c1c11fc"><path d="M 246 191 L 492.644531 191 L 492.644531 749 L 246 749 Z M 246 191 " clip-rule="nonzero"/></clipPath></defs><g clip-path="url(#5c0c1c11fc)"><path fill="#000000" d="M 457.800781 191.925781 L 256.53125 191.925781 C 255.878906 191.957031 255.234375 192.050781 254.597656 192.203125 C 253.960938 192.359375 253.347656 192.570312 252.753906 192.84375 C 252.15625 193.113281 251.59375 193.4375 251.0625 193.816406 C 250.527344 194.199219 250.035156 194.625 249.585938 195.097656 C 249.132812 195.570312 248.730469 196.082031 248.378906 196.632812 C 248.023438 197.183594 247.726562 197.761719 247.484375 198.367188 C 247.238281 198.976562 247.054688 199.601562 246.933594 200.242188 C 246.808594 200.882812 246.746094 201.53125 246.746094 202.1875 C 246.746094 202.839844 246.808594 203.488281 246.933594 204.128906 C 247.054688 204.773438 247.238281 205.398438 247.484375 206.003906 C 247.726562 206.613281 248.023438 207.191406 248.378906 207.742188 C 248.730469 208.289062 249.132812 208.800781 249.585938 209.277344 C 250.035156 209.75 250.527344 210.175781 251.0625 210.554688 C 251.59375 210.933594 252.15625 211.257812 252.753906 211.53125 C 253.347656 211.800781 253.960938 212.015625 254.597656 212.167969 C 255.234375 212.324219 255.878906 212.414062 256.53125 212.445312 L 457.800781 212.445312 C 458.746094 212.449219 459.679688 212.542969 460.605469 212.726562 C 461.527344 212.910156 462.425781 213.183594 463.296875 213.546875 C 464.167969 213.910156 464.996094 214.351562 465.78125 214.875 C 466.5625 215.398438 467.289062 215.996094 467.957031 216.664062 C 468.621094 217.328125 469.21875 218.054688 469.742188 218.839844 C 470.265625 219.625 470.710938 220.449219 471.070312 221.320312 C 471.433594 222.191406 471.707031 223.089844 471.890625 224.015625 C 472.078125 224.941406 472.171875 225.875 472.171875 226.816406 L 472.171875 257.082031 L 256.53125 257.082031 C 255.855469 257.082031 255.1875 257.144531 254.527344 257.277344 C 253.863281 257.410156 253.222656 257.601562 252.597656 257.859375 C 251.976562 258.117188 251.382812 258.433594 250.820312 258.808594 C 250.261719 259.183594 249.742188 259.609375 249.265625 260.085938 C 248.785156 260.5625 248.359375 261.082031 247.984375 261.644531 C 247.609375 262.203125 247.292969 262.796875 247.035156 263.421875 C 246.777344 264.042969 246.582031 264.6875 246.449219 265.347656 C 246.320312 266.011719 246.253906 266.679688 246.253906 267.351562 C 246.253906 268.027344 246.320312 268.695312 246.449219 269.359375 C 246.582031 270.019531 246.777344 270.664062 247.035156 271.285156 C 247.292969 271.910156 247.609375 272.5 247.984375 273.0625 C 248.359375 273.621094 248.785156 274.140625 249.265625 274.617188 C 249.742188 275.097656 250.261719 275.523438 250.820312 275.894531 C 251.382812 276.269531 251.976562 276.585938 252.597656 276.84375 C 253.222656 277.101562 253.863281 277.296875 254.527344 277.429688 C 255.1875 277.558594 255.855469 277.625 256.53125 277.625 L 472.171875 277.625 L 472.171875 663.144531 L 279.605469 663.144531 C 278.910156 663.109375 278.222656 663.148438 277.535156 663.253906 C 276.847656 663.363281 276.179688 663.535156 275.527344 663.78125 C 274.878906 664.023438 274.257812 664.328125 273.667969 664.699219 C 273.078125 665.066406 272.535156 665.492188 272.03125 665.96875 C 271.527344 666.449219 271.078125 666.976562 270.683594 667.546875 C 270.285156 668.117188 269.953125 668.722656 269.679688 669.359375 C 269.40625 670 269.199219 670.660156 269.058594 671.339844 C 268.917969 672.019531 268.847656 672.707031 268.847656 673.402344 C 268.847656 674.097656 268.917969 674.785156 269.058594 675.46875 C 269.199219 676.148438 269.40625 676.808594 269.679688 677.445312 C 269.953125 678.085938 270.285156 678.691406 270.683594 679.261719 C 271.078125 679.832031 271.527344 680.355469 272.03125 680.835938 C 272.535156 681.316406 273.078125 681.742188 273.667969 682.109375 C 274.257812 682.476562 274.878906 682.785156 275.527344 683.027344 C 276.179688 683.269531 276.847656 683.445312 277.535156 683.550781 C 278.222656 683.660156 278.910156 683.695312 279.605469 683.664062 L 472.171875 683.664062 L 472.171875 713.925781 C 472.171875 714.871094 472.078125 715.804688 471.890625 716.730469 C 471.707031 717.652344 471.433594 718.550781 471.070312 719.421875 C 470.710938 720.292969 470.265625 721.121094 469.742188 721.90625 C 469.21875 722.691406 468.621094 723.414062 467.957031 724.082031 C 467.289062 724.75 466.5625 725.34375 465.78125 725.867188 C 464.996094 726.394531 464.167969 726.835938 463.296875 727.199219 C 462.425781 727.558594 461.527344 727.832031 460.605469 728.019531 C 459.679688 728.203125 458.746094 728.296875 457.800781 728.296875 L 271.132812 728.296875 C 270.476562 728.328125 269.832031 728.421875 269.199219 728.574219 C 268.5625 728.730469 267.949219 728.941406 267.351562 729.214844 C 266.757812 729.484375 266.195312 729.8125 265.660156 730.191406 C 265.128906 730.570312 264.636719 730.996094 264.183594 731.46875 C 263.734375 731.941406 263.332031 732.453125 262.976562 733.003906 C 262.625 733.554688 262.324219 734.132812 262.082031 734.742188 C 261.839844 735.347656 261.65625 735.972656 261.53125 736.613281 C 261.410156 737.257812 261.347656 737.90625 261.347656 738.558594 C 261.347656 739.210938 261.410156 739.859375 261.53125 740.503906 C 261.65625 741.144531 261.839844 741.769531 262.082031 742.375 C 262.324219 742.984375 262.625 743.5625 262.976562 744.113281 C 263.332031 744.664062 263.734375 745.175781 264.183594 745.648438 C 264.636719 746.121094 265.128906 746.546875 265.660156 746.925781 C 266.195312 747.304688 266.757812 747.632812 267.351562 747.902344 C 267.949219 748.175781 268.5625 748.386719 269.199219 748.542969 C 269.832031 748.695312 270.476562 748.789062 271.132812 748.820312 L 457.800781 748.820312 C 458.945312 748.816406 460.082031 748.761719 461.222656 748.648438 C 462.359375 748.535156 463.484375 748.367188 464.605469 748.144531 C 465.726562 747.921875 466.832031 747.644531 467.925781 747.3125 C 469.019531 746.980469 470.09375 746.59375 471.148438 746.15625 C 472.203125 745.71875 473.234375 745.230469 474.242188 744.691406 C 475.25 744.152344 476.230469 743.566406 477.179688 742.929688 C 478.128906 742.296875 479.046875 741.617188 479.929688 740.890625 C 480.8125 740.167969 481.65625 739.402344 482.464844 738.59375 C 483.273438 737.785156 484.039062 736.9375 484.765625 736.054688 C 485.488281 735.171875 486.167969 734.257812 486.804688 733.304688 C 487.4375 732.355469 488.023438 731.378906 488.5625 730.371094 C 489.101562 729.363281 489.589844 728.332031 490.027344 727.277344 C 490.464844 726.21875 490.851562 725.144531 491.183594 724.054688 C 491.515625 722.960938 491.792969 721.851562 492.015625 720.730469 C 492.238281 719.613281 492.40625 718.484375 492.519531 717.347656 C 492.632812 716.210938 492.6875 715.070312 492.691406 713.925781 L 492.691406 226.816406 C 492.6875 225.675781 492.632812 224.535156 492.519531 223.398438 C 492.40625 222.261719 492.238281 221.132812 492.015625 220.011719 C 491.792969 218.890625 491.515625 217.785156 491.183594 216.691406 C 490.851562 215.597656 490.464844 214.523438 490.027344 213.46875 C 489.589844 212.414062 489.101562 211.382812 488.5625 210.375 C 488.023438 209.367188 487.4375 208.386719 486.804688 207.4375 C 486.167969 206.488281 485.488281 205.574219 484.765625 204.6875 C 484.039062 203.804688 483.273438 202.960938 482.464844 202.152344 C 481.65625 201.34375 480.8125 200.578125 479.929688 199.851562 C 479.046875 199.128906 478.128906 198.449219 477.179688 197.8125 C 476.230469 197.179688 475.25 196.589844 474.242188 196.054688 C 473.234375 195.515625 472.203125 195.027344 471.148438 194.589844 C 470.09375 194.152344 469.019531 193.765625 467.925781 193.433594 C 466.832031 193.101562 465.726562 192.824219 464.605469 192.601562 C 463.484375 192.375 462.359375 192.207031 461.21875 192.097656 C 460.082031 191.984375 458.945312 191.925781 457.800781 191.925781 Z M 457.800781 191.925781 " fill-opacity="1" fill-rule="nonzero"/></g><path fill="#000000" d="M 388.1875 456.371094 L 286.859375 355.03125 C 286.382812 354.554688 285.867188 354.132812 285.304688 353.757812 C 284.746094 353.382812 284.152344 353.066406 283.53125 352.808594 C 282.910156 352.550781 282.269531 352.355469 281.605469 352.226562 C 280.945312 352.09375 280.28125 352.027344 279.605469 352.027344 C 278.933594 352.027344 278.265625 352.09375 277.605469 352.226562 C 276.945312 352.355469 276.300781 352.550781 275.679688 352.808594 C 275.058594 353.066406 274.464844 353.382812 273.90625 353.757812 C 273.347656 354.132812 272.828125 354.554688 272.351562 355.03125 C 271.875 355.507812 271.449219 356.027344 271.074219 356.585938 C 270.703125 357.148438 270.386719 357.738281 270.128906 358.359375 C 269.871094 358.984375 269.675781 359.625 269.542969 360.285156 C 269.414062 360.945312 269.347656 361.613281 269.347656 362.289062 C 269.347656 362.960938 269.414062 363.628906 269.542969 364.289062 C 269.675781 364.949219 269.871094 365.589844 270.128906 366.214844 C 270.386719 366.835938 270.703125 367.425781 271.074219 367.988281 C 271.449219 368.546875 271.875 369.066406 272.351562 369.542969 L 373.679688 470.878906 C 374.152344 471.355469 374.671875 471.78125 375.234375 472.15625 C 375.792969 472.53125 376.382812 472.84375 377.007812 473.101562 C 377.628906 473.359375 378.269531 473.554688 378.929688 473.6875 C 379.589844 473.820312 380.257812 473.882812 380.933594 473.882812 C 381.605469 473.882812 382.273438 473.820312 382.933594 473.6875 C 383.59375 473.554688 384.234375 473.359375 384.859375 473.101562 C 385.480469 472.84375 386.070312 472.53125 386.632812 472.15625 C 387.191406 471.78125 387.710938 471.355469 388.1875 470.878906 C 388.664062 470.402344 389.085938 469.882812 389.460938 469.324219 C 389.835938 468.765625 390.152344 468.171875 390.410156 467.550781 C 390.667969 466.929688 390.863281 466.285156 390.992188 465.625 C 391.125 464.964844 391.191406 464.296875 391.191406 463.625 C 391.191406 462.949219 391.125 462.285156 390.992188 461.621094 C 390.863281 460.960938 390.667969 460.320312 390.410156 459.699219 C 390.152344 459.074219 389.835938 458.484375 389.460938 457.925781 C 389.085938 457.363281 388.664062 456.847656 388.1875 456.371094 Z M 388.1875 456.371094 " fill-opacity="1" fill-rule="nonzero"/><path fill="#000000" d="M 306.320312 502.246094 C 305.84375 501.769531 305.324219 501.34375 304.765625 500.96875 C 304.203125 500.59375 303.613281 500.277344 302.992188 500.019531 C 302.367188 499.761719 301.726562 499.566406 301.066406 499.433594 C 300.40625 499.304688 299.738281 499.238281 299.0625 499.238281 C 298.390625 499.238281 297.722656 499.300781 297.0625 499.433594 C 296.398438 499.566406 295.757812 499.757812 295.136719 500.015625 C 294.511719 500.273438 293.921875 500.589844 293.359375 500.964844 C 292.800781 501.339844 292.28125 501.765625 291.804688 502.242188 C 291.328125 502.71875 290.902344 503.238281 290.527344 503.796875 C 290.15625 504.359375 289.839844 504.949219 289.582031 505.574219 C 289.324219 506.195312 289.128906 506.835938 288.996094 507.5 C 288.867188 508.160156 288.800781 508.828125 288.800781 509.5 C 288.800781 510.175781 288.867188 510.84375 289 511.503906 C 289.128906 512.164062 289.324219 512.804688 289.582031 513.429688 C 289.84375 514.050781 290.160156 514.640625 290.535156 515.203125 C 290.910156 515.761719 291.335938 516.28125 291.8125 516.757812 L 365.226562 590.179688 C 365.703125 590.65625 366.222656 591.082031 366.78125 591.457031 C 367.339844 591.832031 367.933594 592.148438 368.554688 592.40625 C 369.175781 592.664062 369.820312 592.855469 370.480469 592.988281 C 371.140625 593.121094 371.808594 593.183594 372.480469 593.183594 C 373.152344 593.183594 373.820312 593.121094 374.480469 592.988281 C 375.140625 592.855469 375.785156 592.664062 376.40625 592.40625 C 377.027344 592.148438 377.621094 591.832031 378.179688 591.457031 C 378.738281 591.082031 379.257812 590.65625 379.734375 590.179688 C 380.210938 589.703125 380.636719 589.1875 381.011719 588.625 C 381.382812 588.066406 381.699219 587.472656 381.957031 586.851562 C 382.214844 586.230469 382.410156 585.589844 382.542969 584.925781 C 382.671875 584.265625 382.738281 583.597656 382.738281 582.925781 C 382.738281 582.253906 382.671875 581.585938 382.542969 580.925781 C 382.410156 580.261719 382.214844 579.621094 381.957031 579 C 381.699219 578.378906 381.382812 577.785156 381.011719 577.226562 C 380.636719 576.664062 380.210938 576.148438 379.734375 575.671875 Z M 306.320312 502.246094 " fill-opacity="1" fill-rule="nonzero"/><path fill="#000000" d="M 191.015625 694.210938 C 191.6875 694.210938 192.355469 694.144531 193.015625 694.015625 C 193.675781 693.882812 194.316406 693.691406 194.941406 693.433594 C 195.5625 693.175781 196.152344 692.859375 196.714844 692.484375 C 197.273438 692.113281 197.792969 691.6875 198.269531 691.210938 C 198.746094 690.734375 199.171875 690.21875 199.546875 689.660156 C 199.921875 689.097656 200.238281 688.507812 200.496094 687.886719 C 200.753906 687.265625 200.953125 686.625 201.085938 685.964844 C 201.214844 685.304688 201.285156 684.636719 201.285156 683.964844 L 201.285156 549.4375 C 201.285156 548.765625 201.21875 548.097656 201.089844 547.433594 C 200.957031 546.773438 200.761719 546.128906 200.503906 545.507812 C 200.246094 544.882812 199.929688 544.292969 199.554688 543.730469 C 199.179688 543.171875 198.753906 542.652344 198.277344 542.175781 C 197.800781 541.699219 197.28125 541.273438 196.722656 540.898438 C 196.160156 540.523438 195.566406 540.207031 194.945312 539.949219 C 194.320312 539.691406 193.679688 539.496094 193.019531 539.363281 C 192.355469 539.230469 191.6875 539.167969 191.015625 539.167969 C 190.339844 539.167969 189.671875 539.230469 189.011719 539.363281 C 188.347656 539.496094 187.707031 539.691406 187.085938 539.949219 C 186.460938 540.207031 185.871094 540.523438 185.308594 540.898438 C 184.746094 541.273438 184.230469 541.699219 183.753906 542.175781 C 183.273438 542.652344 182.847656 543.171875 182.476562 543.730469 C 182.101562 544.292969 181.785156 544.882812 181.527344 545.507812 C 181.265625 546.128906 181.074219 546.773438 180.941406 547.433594 C 180.808594 548.097656 180.742188 548.765625 180.742188 549.4375 L 180.742188 683.964844 C 180.746094 684.636719 180.8125 685.304688 180.945312 685.964844 C 181.078125 686.625 181.273438 687.265625 181.53125 687.886719 C 181.789062 688.507812 182.109375 689.097656 182.484375 689.660156 C 182.859375 690.21875 183.285156 690.734375 183.761719 691.210938 C 184.238281 691.6875 184.753906 692.113281 185.316406 692.484375 C 185.875 692.859375 186.46875 693.175781 187.089844 693.433594 C 187.710938 693.691406 188.351562 693.882812 189.011719 694.015625 C 189.675781 694.144531 190.339844 694.210938 191.015625 694.210938 Z M 191.015625 694.210938 " fill-opacity="1" fill-rule="nonzero"/><path fill="#000000" d="M 273.042969 481.65625 C 273.042969 480.679688 272.996094 479.703125 272.898438 478.730469 C 272.804688 477.757812 272.660156 476.789062 272.46875 475.832031 C 272.28125 474.871094 272.042969 473.921875 271.761719 472.988281 C 271.476562 472.050781 271.148438 471.128906 270.773438 470.226562 C 270.402344 469.324219 269.984375 468.4375 269.523438 467.574219 C 269.066406 466.710938 268.5625 465.875 268.019531 465.058594 C 267.480469 464.246094 266.898438 463.460938 266.277344 462.703125 C 265.660156 461.945312 265.003906 461.21875 264.316406 460.527344 C 263.625 459.835938 262.902344 459.175781 262.148438 458.554688 C 261.394531 457.933594 260.609375 457.347656 259.796875 456.804688 C 258.984375 456.257812 258.148438 455.753906 257.289062 455.289062 C 256.425781 454.828125 255.542969 454.40625 254.640625 454.03125 C 253.738281 453.652344 252.820312 453.320312 251.886719 453.035156 C 250.949219 452.746094 250.003906 452.507812 249.042969 452.3125 C 248.085938 452.117188 247.121094 451.972656 246.148438 451.871094 C 245.175781 451.773438 244.199219 451.722656 243.21875 451.71875 L 225.050781 451.71875 L 225.050781 290.246094 L 233.042969 260.464844 C 233.257812 259.589844 233.355469 258.699219 233.339844 257.796875 L 233.339844 218.640625 C 233.339844 217.96875 233.273438 217.300781 233.140625 216.640625 C 233.007812 215.980469 232.8125 215.339844 232.554688 214.71875 C 232.292969 214.097656 231.976562 213.507812 231.601562 212.945312 C 231.226562 212.386719 230.800781 211.871094 230.324219 211.394531 C 229.847656 210.917969 229.328125 210.492188 228.769531 210.121094 C 228.210938 209.746094 227.617188 209.429688 226.996094 209.171875 C 226.375 208.914062 225.730469 208.722656 225.070312 208.589844 C 224.410156 208.457031 223.742188 208.394531 223.070312 208.394531 L 165.914062 208.394531 C 165.238281 208.390625 164.570312 208.457031 163.910156 208.585938 C 163.25 208.714844 162.609375 208.910156 161.984375 209.167969 C 161.363281 209.421875 160.769531 209.738281 160.207031 210.113281 C 159.648438 210.484375 159.128906 210.910156 158.652344 211.386719 C 158.175781 211.863281 157.75 212.382812 157.375 212.941406 C 157 213.5 156.683594 214.09375 156.425781 214.714844 C 156.167969 215.335938 155.972656 215.980469 155.839844 216.640625 C 155.707031 217.300781 155.640625 217.96875 155.640625 218.640625 L 155.640625 257.796875 C 155.640625 258.699219 155.757812 259.589844 155.988281 260.464844 L 163.933594 290.015625 L 163.933594 451.832031 L 138.921875 451.832031 C 138.046875 451.832031 137.171875 451.871094 136.296875 451.945312 C 135.421875 452.023438 134.554688 452.136719 133.691406 452.289062 C 132.824219 452.445312 131.96875 452.636719 131.125 452.863281 C 130.277344 453.09375 129.441406 453.359375 128.617188 453.660156 C 127.792969 453.964844 126.984375 454.304688 126.191406 454.679688 C 125.398438 455.054688 124.625 455.460938 123.867188 455.90625 C 123.109375 456.347656 122.371094 456.824219 121.65625 457.332031 C 120.941406 457.839844 120.25 458.378906 119.582031 458.949219 C 118.914062 459.519531 118.273438 460.117188 117.660156 460.742188 C 117.042969 461.367188 116.457031 462.019531 115.902344 462.699219 C 115.34375 463.375 114.820312 464.078125 114.324219 464.800781 C 113.828125 465.527344 113.367188 466.269531 112.9375 467.035156 C 112.507812 467.800781 112.113281 468.585938 111.753906 469.386719 C 111.394531 470.183594 111.070312 471 110.78125 471.828125 C 110.496094 472.65625 110.246094 473.496094 110.03125 474.347656 C 109.816406 475.199219 109.640625 476.058594 109.503906 476.925781 C 109.367188 477.792969 109.269531 478.664062 109.207031 479.539062 C 109.148438 480.414062 109.125 481.289062 109.140625 482.167969 C 109.160156 483.046875 109.214844 483.921875 109.308594 484.792969 C 109.402344 485.664062 109.535156 486.53125 109.707031 487.390625 C 109.878906 488.253906 110.089844 489.105469 110.335938 489.945312 C 110.582031 490.789062 110.863281 491.617188 111.183594 492.433594 C 111.503906 493.253906 111.859375 494.054688 112.25 494.839844 C 112.640625 495.625 113.066406 496.390625 113.523438 497.140625 C 113.980469 497.886719 114.472656 498.613281 114.996094 499.320312 C 115.519531 500.023438 116.070312 500.703125 116.65625 501.359375 C 117.238281 502.015625 117.847656 502.644531 118.488281 503.246094 C 119.125 503.847656 119.789062 504.421875 120.480469 504.964844 C 121.167969 505.507812 121.878906 506.019531 122.613281 506.5 C 123.347656 506.976562 124.101562 507.425781 124.875 507.839844 C 125.652344 508.25 126.441406 508.628906 127.25 508.972656 C 128.054688 509.316406 128.878906 509.625 129.710938 509.894531 L 129.710938 685.96875 C 129.714844 687.488281 129.789062 689.003906 129.941406 690.515625 C 130.089844 692.027344 130.3125 693.527344 130.613281 695.015625 C 130.910156 696.507812 131.277344 697.980469 131.71875 699.433594 C 132.164062 700.886719 132.675781 702.316406 133.257812 703.71875 C 133.839844 705.121094 134.488281 706.496094 135.203125 707.835938 C 135.921875 709.175781 136.703125 710.476562 137.546875 711.738281 C 138.390625 713.003906 139.296875 714.222656 140.257812 715.394531 C 141.222656 716.570312 142.242188 717.695312 143.316406 718.769531 C 144.390625 719.84375 145.515625 720.863281 146.691406 721.828125 C 147.863281 722.789062 149.082031 723.695312 150.347656 724.539062 C 151.609375 725.382812 152.910156 726.164062 154.25 726.882812 C 155.589844 727.597656 156.960938 728.246094 158.363281 728.828125 C 159.769531 729.410156 161.195312 729.925781 162.648438 730.367188 C 164.105469 730.808594 165.574219 731.175781 167.066406 731.476562 C 168.554688 731.773438 170.054688 731.996094 171.566406 732.148438 C 173.082031 732.296875 174.59375 732.375 176.113281 732.375 L 206.074219 732.375 C 207.59375 732.375 209.109375 732.296875 210.621094 732.148438 C 212.132812 731.996094 213.636719 731.773438 215.125 731.476562 C 216.613281 731.179688 218.085938 730.808594 219.539062 730.367188 C 220.992188 729.925781 222.421875 729.410156 223.824219 728.828125 C 225.230469 728.246094 226.601562 727.597656 227.941406 726.882812 C 229.28125 726.164062 230.582031 725.382812 231.84375 724.539062 C 233.109375 723.695312 234.328125 722.789062 235.5 721.828125 C 236.675781 720.863281 237.800781 719.84375 238.875 718.769531 C 239.949219 717.695312 240.96875 716.570312 241.929688 715.394531 C 242.894531 714.222656 243.800781 713.003906 244.644531 711.738281 C 245.488281 710.476562 246.269531 709.175781 246.984375 707.835938 C 247.703125 706.496094 248.351562 705.121094 248.933594 703.71875 C 249.515625 702.316406 250.027344 700.886719 250.46875 699.433594 C 250.910156 697.980469 251.28125 696.507812 251.578125 695.015625 C 251.875 693.527344 252.101562 692.027344 252.25 690.515625 C 252.402344 689.003906 252.476562 687.488281 252.476562 685.96875 L 252.476562 509.894531 C 253.960938 509.410156 255.394531 508.816406 256.785156 508.109375 C 258.171875 507.402344 259.496094 506.589844 260.757812 505.675781 C 262.019531 504.757812 263.203125 503.75 264.304688 502.648438 C 265.40625 501.546875 266.417969 500.367188 267.335938 499.109375 C 268.253906 497.847656 269.066406 496.523438 269.777344 495.136719 C 270.484375 493.75 271.082031 492.316406 271.566406 490.832031 C 272.050781 489.351562 272.417969 487.84375 272.664062 486.304688 C 272.914062 484.765625 273.039062 483.214844 273.042969 481.65625 Z M 150.09375 511.597656 L 231.960938 511.597656 L 231.960938 686.058594 C 231.957031 686.90625 231.914062 687.75 231.832031 688.59375 C 231.746094 689.4375 231.621094 690.273438 231.453125 691.105469 C 231.289062 691.933594 231.082031 692.753906 230.835938 693.566406 C 230.585938 694.375 230.300781 695.171875 229.976562 695.953125 C 229.652344 696.738281 229.289062 697.5 228.890625 698.25 C 228.488281 698.996094 228.054688 699.71875 227.582031 700.425781 C 227.109375 701.128906 226.605469 701.808594 226.070312 702.460938 C 225.53125 703.117188 224.960938 703.742188 224.363281 704.34375 C 223.765625 704.941406 223.136719 705.507812 222.480469 706.046875 C 221.828125 706.582031 221.148438 707.085938 220.441406 707.558594 C 219.738281 708.027344 219.011719 708.464844 218.265625 708.863281 C 217.519531 709.261719 216.753906 709.625 215.972656 709.949219 C 215.1875 710.273438 214.394531 710.558594 213.582031 710.804688 C 212.773438 711.050781 211.953125 711.257812 211.121094 711.421875 C 210.289062 711.589844 209.453125 711.710938 208.609375 711.796875 C 207.765625 711.878906 206.921875 711.921875 206.074219 711.921875 L 175.953125 711.921875 C 175.105469 711.921875 174.261719 711.878906 173.421875 711.792969 C 172.578125 711.710938 171.742188 711.585938 170.910156 711.417969 C 170.082031 711.253906 169.261719 711.046875 168.453125 710.800781 C 167.640625 710.550781 166.847656 710.265625 166.0625 709.941406 C 165.28125 709.617188 164.519531 709.253906 163.773438 708.855469 C 163.027344 708.457031 162.300781 708.019531 161.597656 707.550781 C 160.894531 707.078125 160.214844 706.574219 159.558594 706.039062 C 158.90625 705.5 158.277344 704.933594 157.679688 704.335938 C 157.082031 703.734375 156.515625 703.109375 155.976562 702.453125 C 155.441406 701.800781 154.9375 701.121094 154.464844 700.417969 C 153.996094 699.714844 153.558594 698.988281 153.160156 698.242188 C 152.761719 697.496094 152.398438 696.730469 152.074219 695.949219 C 151.75 695.167969 151.464844 694.371094 151.214844 693.5625 C 150.96875 692.75 150.761719 691.933594 150.597656 691.101562 C 150.429688 690.269531 150.304688 689.433594 150.222656 688.59375 C 150.136719 687.75 150.09375 686.90625 150.09375 686.058594 Z M 138.921875 490.984375 C 138.3125 490.984375 137.707031 490.925781 137.105469 490.804688 C 136.507812 490.6875 135.925781 490.511719 135.359375 490.277344 C 134.792969 490.042969 134.257812 489.753906 133.75 489.414062 C 133.238281 489.074219 132.769531 488.6875 132.335938 488.257812 C 131.90625 487.824219 131.519531 487.355469 131.179688 486.84375 C 130.839844 486.335938 130.550781 485.800781 130.316406 485.234375 C 130.082031 484.667969 129.90625 484.085938 129.789062 483.488281 C 129.667969 482.886719 129.609375 482.28125 129.609375 481.667969 C 129.609375 481.058594 129.667969 480.453125 129.789062 479.851562 C 129.90625 479.25 130.082031 478.667969 130.316406 478.105469 C 130.550781 477.539062 130.839844 477.003906 131.179688 476.492188 C 131.519531 475.984375 131.90625 475.515625 132.335938 475.082031 C 132.769531 474.648438 133.238281 474.261719 133.75 473.921875 C 134.257812 473.582031 134.792969 473.296875 135.359375 473.0625 C 135.925781 472.828125 136.507812 472.652344 137.105469 472.53125 C 137.707031 472.414062 138.3125 472.351562 138.921875 472.351562 L 243.21875 472.351562 C 243.832031 472.351562 244.4375 472.414062 245.039062 472.53125 C 245.636719 472.652344 246.21875 472.828125 246.785156 473.0625 C 247.351562 473.296875 247.886719 473.582031 248.394531 473.921875 C 248.90625 474.261719 249.375 474.648438 249.808594 475.082031 C 250.238281 475.515625 250.625 475.984375 250.964844 476.492188 C 251.304688 477.003906 251.59375 477.539062 251.828125 478.105469 C 252.0625 478.667969 252.238281 479.25 252.355469 479.851562 C 252.476562 480.453125 252.535156 481.058594 252.535156 481.667969 C 252.535156 482.28125 252.476562 482.886719 252.355469 483.488281 C 252.238281 484.085938 252.0625 484.667969 251.828125 485.234375 C 251.59375 485.800781 251.304688 486.335938 250.964844 486.84375 C 250.625 487.355469 250.238281 487.824219 249.808594 488.257812 C 249.375 488.6875 248.90625 489.074219 248.394531 489.414062 C 247.886719 489.753906 247.351562 490.042969 246.785156 490.277344 C 246.21875 490.511719 245.636719 490.6875 245.039062 490.804688 C 244.4375 490.925781 243.832031 490.984375 243.21875 490.984375 Z M 212.867188 256.414062 L 205.199219 285.039062 C 204.742188 286.210938 204.511719 287.421875 204.507812 288.679688 L 204.507812 451.832031 L 184.472656 451.832031 L 184.472656 288.65625 C 184.476562 287.75 184.355469 286.859375 184.105469 285.984375 L 176.160156 256.414062 L 176.160156 228.777344 L 212.867188 228.777344 Z M 212.867188 256.414062 " fill-opacity="1" fill-rule="nonzero"/></svg>