<svg xmlns="http://www.w3.org/2000/svg" xmlns:xlink="http://www.w3.org/1999/xlink" width="800" zoomAndPan="magnify" viewBox="0 0 600 1499.999933" height="2000" preserveAspectRatio="xMidYMid meet" version="1.0"><defs><clipPath id="d74e823129"><path d="M 0 450.15625 L 600 450.15625 L 600 654 L 0 654 Z M 0 450.15625 " clip-rule="nonzero"/></clipPath><clipPath id="71d810a651"><path d="M 0 291 L 600 291 L 600 465.621094 L 0 465.621094 Z M 0 291 " clip-rule="nonzero"/></clipPath></defs><g clip-path="url(#d74e823129)"><path fill="#232526" d="M 600 616.28125 L 580 612.414062 C 560 608.480469 520 600.746094 480 605.8125 C 440 610.945312 400 628.945312 360 640.28125 C 320 651.613281 280 656.28125 240 652.945312 C 200 649.613281 160 638.28125 120 622.945312 C 80 607.613281 40 588.28125 20 578.613281 L 0 568.945312 L 0 450.28125 L 20 450.28125 C 40 450.28125 80 450.28125 120 450.28125 C 160 450.28125 200 450.28125 240 450.28125 C 280 450.28125 320 450.28125 360 450.28125 C 400 450.28125 440 450.28125 480 450.28125 C 520 450.28125 560 450.28125 580 450.28125 L 600 450.28125 Z M 600 616.28125 " fill-opacity="1" fill-rule="nonzero"/></g><g clip-path="url(#71d810a651)"><path fill="#232526" d="M 0.296875 381.894531 L 34.597656 366.660156 C 68.894531 351.492188 137.496094 321.019531 206.097656 305.167969 C 274.699219 289.246094 343.300781 287.871094 411.902344 297.136719 C 480.503906 306.402344 549.105469 326.304688 583.402344 336.257812 L 617.703125 346.207031 L 617.703125 465.621094 L 583.402344 465.621094 C 549.105469 465.621094 480.503906 465.621094 411.902344 465.621094 C 343.300781 465.621094 274.699219 465.621094 206.097656 465.621094 C 137.496094 465.621094 68.894531 465.621094 34.597656 465.621094 L 0.296875 465.621094 Z M 0.296875 381.894531 " fill-opacity="1" fill-rule="nonzero"/></g></svg>