<svg xmlns="http://www.w3.org/2000/svg" xmlns:xlink="http://www.w3.org/1999/xlink" width="800" zoomAndPan="magnify" viewBox="0 0 600 1499.999933" height="2000" preserveAspectRatio="xMidYMid meet" version="1.0"><defs><clipPath id="8a2c440713"><path d="M 74.546875 215.554688 L 540 215.554688 L 540 750.304688 L 74.546875 750.304688 Z M 74.546875 215.554688 " clip-rule="nonzero"/></clipPath></defs><g clip-path="url(#8a2c440713)"><path fill="#000000" d="M 539.875 396.890625 C 539.875 373.046875 539.875 361.121094 539.847656 337.246094 L 539.84375 336.582031 L 539.25 336.292969 C 527.097656 330.328125 517.972656 325.859375 508.851562 321.386719 C 499.726562 316.914062 490.605469 312.445312 478.449219 306.484375 L 477.980469 306.253906 L 369.296875 359.621094 L 369.308594 329.660156 L 137.324219 215.789062 L 136.855469 215.554688 L 74.972656 245.882812 L 74.953125 306.859375 L 134.4375 336.058594 C 111.40625 347.355469 99.230469 353.3125 75.578125 364.886719 L 74.984375 365.179688 L 74.984375 365.84375 C 74.953125 389.71875 74.953125 401.644531 74.953125 425.519531 L 74.953125 426.179688 L 134.402344 455.355469 C 119.730469 462.558594 109.453125 467.597656 97.800781 473.308594 L 74.984375 484.5 L 74.980469 485.164062 C 74.953125 509.011719 74.953125 520.960938 74.953125 544.808594 L 74.953125 545.472656 L 246.144531 629.515625 L 275.878906 644.109375 C 271.078125 646.453125 266.261719 648.820312 260.980469 651.414062 C 256.460938 653.636719 251.597656 656.023438 246.117188 658.707031 L 245.519531 659 L 245.519531 659.664062 C 245.546875 683.511719 245.546875 695.464844 245.546875 719.308594 L 245.546875 719.972656 L 307.445312 750.304688 L 307.910156 750.074219 C 332.222656 738.121094 344.375 732.15625 368.683594 720.234375 L 539.277344 636.484375 L 539.875 636.191406 L 539.875 635.53125 C 539.875 611.683594 539.875 599.730469 539.84375 575.882812 L 539.84375 575.21875 L 539.25 574.929688 C 527.09375 568.964844 517.972656 564.496094 508.847656 560.023438 C 500.21875 555.792969 491.582031 551.5625 480.382812 546.070312 L 539.875 516.871094 L 539.875 516.210938 C 539.875 492.335938 539.875 480.410156 539.84375 456.5625 L 539.84375 455.902344 L 480.390625 426.75 L 539.875 397.554688 Z M 477.980469 308.625 C 489.902344 314.472656 498.90625 318.886719 507.914062 323.296875 C 516.542969 327.527344 525.175781 331.757812 536.371094 337.25 L 307.410156 449.644531 L 249.007812 421.023438 C 253.761719 418.695312 258.070312 416.578125 262.085938 414.605469 C 267.835938 411.78125 273.039062 409.226562 278.273438 406.667969 L 306.28125 420.417969 L 306.929688 420.738281 L 307.402344 420.96875 L 369.285156 390.640625 L 369.292969 361.992188 Z M 247.664062 437.335938 C 247.65625 432.875 247.652344 428.097656 247.648438 422.730469 L 306.34375 451.496094 L 306.367188 508.777344 C 283.257812 497.445312 271.109375 491.488281 247.679688 480.007812 L 247.679688 449.597656 C 247.675781 445.621094 247.671875 441.621094 247.664062 437.335938 Z M 308.488281 360.792969 L 367.175781 332.03125 L 367.15625 389.308594 L 308.46875 418.074219 Z M 365.824219 330.324219 L 307.421875 358.945312 L 78.457031 246.546875 L 136.855469 217.929688 Z M 77.101562 248.253906 L 306.355469 360.792969 L 306.335938 418.074219 L 278.761719 404.519531 L 180.234375 356.167969 L 77.082031 305.535156 Z M 246.132812 390.890625 L 275.855469 405.480469 C 271.113281 407.796875 266.355469 410.132812 261.148438 412.691406 C 256.582031 414.9375 251.667969 417.351562 246.113281 420.070312 L 245.519531 420.359375 L 245.519531 421.027344 C 245.519531 427.101562 245.527344 432.40625 245.535156 437.339844 C 245.539062 441.007812 245.546875 444.46875 245.546875 447.886719 L 78.464844 365.847656 C 101.335938 354.65625 113.507812 348.699219 136.847656 337.25 L 180.734375 358.785156 Z M 77.109375 367.550781 L 245.546875 450.257812 L 245.546875 481.335938 L 246.144531 481.628906 C 270.480469 493.550781 282.636719 499.511719 306.945312 511.433594 L 307.414062 511.664062 L 307.878906 511.4375 C 307.878906 511.4375 310.914062 509.964844 312.347656 509.246094 L 318.519531 506.21875 C 318.792969 506.082031 319.0625 505.953125 319.335938 505.816406 L 329.078125 501.035156 L 332.347656 499.433594 C 332.648438 499.289062 332.929688 499.144531 333.222656 499 L 337.550781 496.878906 C 338.367188 496.480469 339.1875 496.078125 340 495.679688 L 367.175781 482.339844 C 367.152344 490.1875 367.152344 498.277344 367.152344 508.636719 C 344.476562 519.757812 311.6875 535.816406 307.390625 537.921875 L 307.285156 537.871094 C 305.246094 536.859375 303.289062 535.894531 301.402344 534.964844 C 300.808594 534.671875 300.214844 534.375 299.632812 534.085938 C 299.425781 533.988281 299.226562 533.890625 299.023438 533.792969 C 294.960938 531.792969 291.238281 529.964844 287.753906 528.261719 C 284.675781 526.746094 281.695312 525.285156 278.734375 523.835938 L 277.664062 523.324219 C 272.054688 520.5625 266.453125 517.800781 260.15625 514.707031 L 255.117188 512.238281 L 249.75 509.597656 C 248.933594 509.195312 248.101562 508.789062 247.253906 508.371094 L 247.101562 508.296875 L 247.082031 508.289062 L 246.421875 507.964844 L 137.289062 454.402344 L 136.820312 454.171875 L 77.082031 424.855469 C 77.082031 401.992188 77.082031 390.082031 77.109375 367.550781 Z M 247.664062 556.699219 C 247.65625 552.226562 247.652344 547.433594 247.648438 542.042969 L 306.34375 570.808594 L 306.367188 628.101562 C 293.425781 621.765625 283.910156 617.101562 273.941406 612.207031 C 266.109375 608.363281 257.984375 604.378906 247.675781 599.328125 L 247.675781 568.914062 C 247.675781 564.960938 247.671875 560.972656 247.664062 556.699219 Z M 307.410156 568.957031 L 249.015625 540.339844 C 260.554688 534.671875 269.363281 530.347656 278.238281 525.980469 C 280.914062 527.285156 283.714844 528.652344 286.683594 530.109375 C 289.042969 531.265625 291.453125 532.453125 293.984375 533.699219 L 295.167969 534.28125 C 295.933594 534.660156 296.730469 535.042969 297.519531 535.425781 C 298.507812 535.914062 299.511719 536.40625 300.542969 536.917969 C 301.621094 537.449219 302.707031 537.988281 303.835938 538.542969 L 306.914062 540.0625 L 307.382812 540.292969 L 307.851562 540.0625 C 307.851562 540.0625 344.375 522.179688 368.683594 510.253906 L 369.277344 509.964844 L 369.277344 509.300781 C 369.277344 498.328125 369.277344 489.902344 369.304688 481.679688 L 369.308594 481.679688 L 369.308594 481.277344 L 477.976562 427.945312 L 536.359375 456.566406 Z M 98.742188 475.222656 C 110.78125 469.320312 121.34375 464.140625 136.816406 456.542969 L 246.144531 510.195312 L 248.78125 511.496094 C 249.445312 511.820312 250.105469 512.148438 250.761719 512.476562 C 251.753906 512.953125 252.71875 513.429688 253.667969 513.898438 L 254.335938 514.226562 L 262.464844 518.222656 C 267.152344 520.527344 271.5 522.664062 275.828125 524.792969 C 267.121094 529.078125 258.339844 533.386719 246.824219 539.039062 L 245.519531 539.683594 L 245.519531 540.34375 C 245.519531 546.445312 245.527344 551.765625 245.535156 556.699219 C 245.542969 560.359375 245.546875 563.808594 245.546875 567.207031 L 78.464844 485.164062 Z M 77.082031 544.144531 C 77.082031 521.316406 77.082031 509.371094 77.109375 486.871094 L 245.546875 569.578125 L 245.546875 600.65625 L 246.144531 600.949219 C 256.734375 606.132812 265.019531 610.199219 273 614.117188 C 283.363281 619.203125 293.214844 624.035156 306.945312 630.753906 L 307.414062 630.984375 L 307.882812 630.753906 C 307.882812 630.753906 307.894531 630.746094 307.898438 630.746094 C 308.410156 630.496094 308.890625 630.261719 309.386719 630.015625 C 313.621094 627.941406 325.71875 622.007812 331.414062 619.207031 L 333.082031 618.382812 C 333.683594 618.085938 334.28125 617.792969 334.871094 617.503906 L 337.988281 615.972656 C 338.082031 615.925781 338.175781 615.882812 338.269531 615.835938 C 339.414062 615.269531 340.5625 614.703125 341.742188 614.128906 C 342.5625 613.707031 343.394531 613.304688 344.246094 612.890625 L 345.183594 612.4375 C 347.378906 611.351562 349.601562 610.265625 351.921875 609.132812 L 352.378906 608.910156 C 352.734375 608.722656 353.101562 608.546875 353.472656 608.367188 C 353.722656 608.246094 353.976562 608.125 354.226562 608 L 360.097656 605.121094 C 360.796875 604.78125 361.5 604.433594 362.210938 604.082031 L 367.175781 601.667969 C 367.152344 609.511719 367.152344 617.59375 367.152344 627.925781 C 355.292969 633.742188 346.320312 638.140625 337.347656 642.535156 C 328.339844 646.949219 319.335938 651.363281 307.414062 657.210938 C 298.644531 652.890625 291.445312 649.367188 284.664062 646.046875 L 278.765625 643.15625 Z M 247.652344 661.367188 L 306.34375 690.132812 L 306.363281 747.40625 L 247.675781 718.648438 C 247.675781 695.8125 247.675781 683.871094 247.652344 661.367188 Z M 367.746094 718.324219 C 343.953125 729.996094 331.792969 735.960938 308.496094 747.414062 L 308.472656 690.128906 L 537.71875 577.597656 C 537.746094 600.097656 537.746094 612.035156 537.746094 634.867188 Z M 536.371094 575.886719 L 307.410156 688.28125 L 249.011719 659.660156 C 253.695312 657.367188 257.949219 655.277344 261.917969 653.328125 C 267.742188 650.464844 273.003906 647.882812 278.300781 645.296875 L 283.726562 647.960938 C 290.625 651.339844 297.960938 654.929688 306.945312 659.355469 L 307.414062 659.585938 L 307.882812 659.355469 C 320.035156 653.394531 329.160156 648.921875 338.28125 644.453125 C 347.40625 639.980469 356.527344 635.507812 368.683594 629.546875 L 369.277344 629.253906 L 369.277344 628.59375 C 369.277344 617.472656 369.277344 608.953125 369.304688 600.605469 L 369.308594 600.601562 L 477.976562 547.265625 C 489.902344 553.113281 498.90625 557.527344 507.910156 561.941406 C 516.539062 566.167969 525.175781 570.398438 536.371094 575.886719 Z M 477.980469 544.890625 L 367.988281 598.875 L 367.738281 598.980469 C 366.210938 599.730469 364.742188 600.449219 363.308594 601.164062 L 361.269531 602.171875 C 360.558594 602.523438 359.859375 602.871094 359.160156 603.210938 L 353.28125 606.09375 C 353.039062 606.21875 352.792969 606.335938 352.550781 606.449219 C 352.15625 606.640625 351.769531 606.828125 351.417969 607.011719 L 350.988281 607.21875 C 348.664062 608.355469 346.441406 609.441406 344.246094 610.523438 L 343.320312 610.976562 C 342.453125 611.394531 341.605469 611.804688 340.789062 612.226562 L 333.9375 615.59375 C 333.347656 615.882812 332.746094 616.175781 332.140625 616.476562 L 330.476562 617.292969 C 329.957031 617.546875 329.433594 617.804688 328.910156 618.0625 C 328.582031 618.222656 328.25 618.386719 327.898438 618.558594 C 325.683594 619.648438 323.414062 620.761719 321.042969 621.921875 C 317.484375 623.667969 313.683594 625.527344 309.601562 627.539062 C 309.191406 627.738281 308.816406 627.921875 308.492188 628.082031 L 308.488281 598.738281 L 308.484375 598.738281 L 308.472656 570.800781 L 537.71875 458.269531 C 537.746094 480.769531 537.746094 492.683594 537.746094 515.542969 Z M 452.402344 438.125 L 334.691406 495.90625 C 334.429688 496.03125 334.175781 496.15625 333.917969 496.285156 C 333.566406 496.464844 333.203125 496.636719 332.847656 496.8125 L 326.957031 499.703125 L 321.347656 502.453125 C 320.246094 502.992188 319.097656 503.554688 317.933594 504.132812 L 312.746094 506.679688 L 311.402344 507.335938 C 310.648438 507.714844 309.457031 508.296875 308.496094 508.769531 L 308.476562 451.492188 L 537.71875 338.957031 C 537.746094 361.484375 537.746094 373.394531 537.746094 396.226562 Z M 452.402344 438.125 " fill-opacity="1" fill-rule="nonzero"/></g></svg>