<svg xmlns="http://www.w3.org/2000/svg" xmlns:xlink="http://www.w3.org/1999/xlink" width="500" zoomAndPan="magnify" viewBox="0 0 375 374.999991" height="500" preserveAspectRatio="xMidYMid meet" version="1.0"><defs><clipPath id="4244326eff"><path d="M 147 142.832031 L 233 142.832031 L 233 232.082031 L 147 232.082031 Z M 147 142.832031 " clip-rule="nonzero"/></clipPath><clipPath id="17effe105c"><path d="M 84.335938 161 L 136 161 L 136 214 L 84.335938 214 Z M 84.335938 161 " clip-rule="nonzero"/></clipPath><clipPath id="0eab7c2666"><path d="M 239 159 L 290.65625 159 L 290.65625 211 L 239 211 Z M 239 159 " clip-rule="nonzero"/></clipPath><clipPath id="5868211e79"><path d="M 142 198 L 163 198 L 163 232 L 142 232 Z M 142 198 " clip-rule="nonzero"/></clipPath><clipPath id="be0b65927f"><path d="M 140.257812 230.542969 L 142.558594 198.378906 L 165 199.980469 L 162.699219 232.148438 Z M 140.257812 230.542969 " clip-rule="nonzero"/></clipPath><clipPath id="8f05bc46be"><path d="M 140.257812 230.542969 L 142.558594 198.378906 L 165 199.980469 L 162.699219 232.148438 Z M 140.257812 230.542969 " clip-rule="nonzero"/></clipPath></defs><g clip-path="url(#4244326eff)"><path fill="#8c52ff" d="M 224.660156 203.761719 C 216.652344 196.941406 218.261719 190.171875 221.851562 181.410156 C 228.070312 166.222656 217.742188 148.789062 202.730469 144.28125 C 186.523438 139.414062 168.589844 147.082031 162.558594 163.273438 C 161.019531 167.417969 160.382812 171.695312 160.640625 176.105469 C 160.945312 181.257812 163.210938 185.347656 164.84375 190.117188 C 167.84375 198.867188 159.941406 206.296875 153.214844 210.628906 C 145.046875 215.898438 146.875 217.585938 151.742188 217.933594 C 155.820312 218.226562 159.503906 217.140625 163.128906 215.308594 C 164.734375 214.5 170.230469 212.007812 171.003906 210.320312 C 168.878906 214.960938 164.554688 223.007812 167.257812 228.136719 C 170.59375 234.457031 178.96875 222.59375 180.644531 220.140625 C 182.140625 217.949219 188.140625 205.960938 191.746094 211.953125 C 195.035156 217.425781 193.246094 225.285156 197.980469 230.210938 C 203.710938 236.175781 206.90625 227.015625 206.949219 222.492188 C 206.980469 219.628906 205.886719 205.769531 212.167969 212.035156 C 215.90625 215.765625 221.398438 224.453125 227.621094 223.730469 C 234.378906 222.941406 223.757812 211.871094 222.6875 210 C 223.628906 210.746094 232.050781 215.953125 232.078125 211.660156 C 232.097656 208.382812 226.828125 205.609375 224.660156 203.761719 Z M 224.660156 203.761719 " fill-opacity="1" fill-rule="nonzero"/></g><g clip-path="url(#17effe105c)"><path fill="#8c52ff" d="M 135.535156 164.050781 C 136.597656 166.175781 135.734375 168.757812 133.609375 169.820312 L 98.269531 187.496094 L 133.609375 205.171875 C 135.734375 206.234375 136.597656 208.820312 135.535156 210.945312 C 134.472656 213.070312 131.886719 213.929688 129.761719 212.867188 L 86.714844 191.34375 C 85.25 190.617188 84.335938 189.125 84.335938 187.496094 C 84.335938 185.871094 85.25 184.375 86.714844 183.648438 L 129.761719 162.125 C 131.886719 161.0625 134.472656 161.925781 135.535156 164.050781 Z M 135.535156 164.050781 " fill-opacity="1" fill-rule="nonzero"/></g><g clip-path="url(#0eab7c2666)"><path fill="#8c52ff" d="M 239.457031 208.507812 C 238.394531 206.382812 239.253906 203.800781 241.378906 202.738281 L 276.71875 185.0625 L 241.378906 167.386719 C 239.253906 166.324219 238.394531 163.738281 239.457031 161.613281 C 240.519531 159.488281 243.101562 158.628906 245.226562 159.691406 L 288.273438 181.214844 C 289.742188 181.941406 290.65625 183.433594 290.65625 185.0625 C 290.65625 186.6875 289.742188 188.183594 288.273438 188.910156 L 245.226562 210.433594 C 243.101562 211.496094 240.519531 210.632812 239.457031 208.507812 Z M 239.457031 208.507812 " fill-opacity="1" fill-rule="nonzero"/></g><g clip-path="url(#5868211e79)"><g clip-path="url(#be0b65927f)"><g clip-path="url(#8f05bc46be)"><path fill="#8c52ff" d="M 148.582031 202.257812 C 148.898438 202.914062 147.324219 204.28125 147.324219 204.28125 C 147.324219 204.28125 145.28125 204.664062 144.960938 204.007812 L 143.378906 200.730469 C 142.398438 202.019531 142.160156 203.800781 142.910156 205.359375 C 143.644531 206.875 145.125 207.789062 146.695312 207.867188 C 149.929688 213.214844 152.65625 218.855469 154.832031 224.714844 C 153.917969 225.996094 153.710938 227.722656 154.441406 229.242188 C 155.195312 230.800781 156.738281 231.714844 158.359375 231.75 L 156.777344 228.476562 C 156.457031 227.816406 158.035156 226.453125 158.035156 226.453125 C 158.035156 226.453125 160.078125 226.070312 160.398438 226.726562 L 161.976562 230 C 162.960938 228.710938 163.203125 226.933594 162.449219 225.375 C 161.734375 223.890625 160.300781 222.992188 158.769531 222.878906 C 155.515625 217.496094 152.777344 211.820312 150.585938 205.925781 C 151.449219 204.65625 151.632812 202.976562 150.917969 201.492188 C 150.164062 199.933594 148.621094 199.015625 147 198.984375 Z M 148.582031 202.257812 " fill-opacity="1" fill-rule="nonzero"/></g></g></g></svg>